<?xml version="1.0" encoding="UTF-8"?>
<svg width="108px" height="106px" viewBox="0 0 108 106" version="1.1" xmlns="http://www.w3.org/2000/svg" xmlns:xlink="http://www.w3.org/1999/xlink">
    <title>E98729E8-80C6-48EB-899E-A8CB00DE36CC</title>
    <g id="REPORT-MOBILE" stroke="none" stroke-width="1" fill="none" fill-rule="evenodd">
        <g id="report-6B-mobile" transform="translate(-56.000000, -300.000000)" fill-rule="nonzero">
            <g id="iconfinder_ui_-45_2813702" transform="translate(56.000000, 300.000000)">
                <path d="M103.2,0 L62.4,0 C59.748,0 57.6,2.15613636 57.6,4.81818182 L57.6,106 L108,106 L108,4.81818182 C108,2.15613636 105.852,0 103.2,0 Z" id="Path" fill="#2D3E7E"></path>
                <path d="M52.8,40.9545455 L4.8,40.9545455 C2.148,40.9545455 0,43.1106818 0,45.7727273 L0,106 L57.6,106 L57.6,45.7727273 C57.6,43.1106818 55.452,40.9545455 52.8,40.9545455 Z" id="Path" fill="#475CA9"></path>
                <path d="M88.8,79.5 L76.8,79.5 C75.4752,79.5 74.4,80.5792727 74.4,81.9090909 L74.4,106 L91.2,106 L91.2,81.9090909 C91.2,80.5792727 90.1248,79.5 88.8,79.5 Z" id="Path" fill="#FFFFFF"></path>
                <rect id="Rectangle" fill="#FFFFFF" x="12" y="53" width="12" height="12.0454545"></rect>
                <rect id="Rectangle" fill="#FFFFFF" x="33.6" y="53" width="12" height="12.0454545"></rect>
                <rect id="Rectangle" fill="#FFFFFF" x="12" y="72.2727273" width="12" height="12.0454545"></rect>
                <rect id="Rectangle" fill="#FFFFFF" x="33.6" y="72.2727273" width="12" height="12.0454545"></rect>
                <rect id="Rectangle" fill="#FFFFFF" x="67.2" y="12.0454545" width="12" height="12.0454545"></rect>
                <rect id="Rectangle" fill="#FFFFFF" x="86.4" y="12.0454545" width="12" height="12.0454545"></rect>
                <rect id="Rectangle" fill="#FFFFFF" x="67.2" y="31.3181818" width="12" height="12.0454545"></rect>
                <rect id="Rectangle" fill="#FFFFFF" x="86.4" y="31.3181818" width="12" height="12.0454545"></rect>
                <rect id="Rectangle" fill="#FFFFFF" x="67.2" y="50.5909091" width="12" height="12.0454545"></rect>
                <rect id="Rectangle" fill="#FFFFFF" x="86.4" y="50.5909091" width="12" height="12.0454545"></rect>
                <rect id="Rectangle" fill="#56AAFF" x="69.6" y="101.181818" width="26.4" height="4.81818182"></rect>
            </g>
        </g>
    </g>
</svg>